<?xml version="1.0" encoding="UTF-8"?><svg id="Content" xmlns="http://www.w3.org/2000/svg" xmlns:xlink="http://www.w3.org/1999/xlink" viewBox="0 0 1800 280"><defs><style>.cls-1{fill:#cd1f40;}.cls-2{fill:#cd163f;}.cls-3{fill:#231f20;}.cls-4{fill:#6d6e71;}.cls-5{fill:url(#RA_Gradient_Swatch_);}</style><linearGradient id="RA_Gradient_Swatch_" x1="78.67" y1="-73.57" x2="180.9" y2="-250.64" gradientTransform="translate(0 294)" gradientUnits="userSpaceOnUse"><stop offset=".28" stop-color="#cd163d"/><stop offset=".9" stop-color="#f58025"/></linearGradient></defs><g><g><path class="cls-2" d="M497.05,164.62c-18.93,0-30.23,9.93-30.23,26.59s11.31,26.5,30.23,26.5,30.33-9.88,30.33-26.5-11.36-26.59-30.33-26.59h0Zm0,38.34c-5.55,0-9.29-4.77-9.29-11.9s3.74-11.94,9.29-11.94,9.29,4.72,9.29,11.94-3.54,11.9-9.29,11.9h0Zm238.85,6.14c0,4.08,3.24,7.37,7.28,7.37h14.16v-50.58h-21.43v43.21h0Zm0-59.82h21.43v10.47h-21.43v-10.47Zm60.22,15.34c-18.93,0-30.23,9.93-30.23,26.59s11.31,26.5,30.23,26.5,30.33-9.88,30.33-26.5-11.36-26.59-30.33-26.59h0Zm0,38.34c-5.55,0-9.29-4.77-9.29-11.9s3.74-11.94,9.29-11.94,9.29,4.72,9.29,11.94c.05,7.37-3.54,11.9-9.29,11.9h0ZM395.2,84.34c-18.93,0-30.23,9.93-30.23,26.59s11.31,26.5,30.23,26.5,30.33-9.88,30.33-26.5-11.31-26.59-30.33-26.59h0Zm0,38.39c-5.55,0-9.29-4.77-9.29-11.9s3.74-11.94,9.29-11.94,9.29,4.72,9.29,11.94c.05,7.32-3.54,11.9-9.29,11.9Zm299.56,.54c-2.31,.05-11.9,.54-20.35,.54s-11.75-.88-13.47-6.49h34.31c.88,0,1.62-.74,1.62-1.62v-3.93c0-17.4-9.24-27.18-26.94-27.43-19.76-.25-29,10.13-29,25.76,0,17.16,9.04,27.43,30.62,27.43,15.44,0,22.42-6.29,23.79-13.52,0-.29-.29-.74-.59-.74h0Zm-24.73-27.18c5.7,0,8.26,4.67,8.26,10.47h-17.6c0-5.85,1.97-10.47,9.34-10.47h0Zm55.64-27.04h-13.96c-4.03,0-7.28,3.29-7.28,7.37v59.77h21.24V69.06h0Zm-269.72,67.98c8.36,.79,17.75-.93,21.33-1.67,.88-.2,1.47-.93,1.47-1.87v-12.34s-3.93,.44-13.27,.44c-8.06,0-13.12-4.18-13.12-10.91s4.72-10.96,12.34-10.96c8.8,0,14.01,1.08,14.01,1.08v-12.49c0-.88-.59-1.67-1.47-1.87-3.54-.79-12.83-2.56-20.15-2.11-15.73,.93-25.51,10.13-25.51,26.45s9.24,24.87,24.38,26.25h0Zm211.32,28.66v6.54c-3.05-4.67-7.72-7.77-14.7-7.77-16.02,0-25.07,9.93-25.07,26.5v.2c0,16.57,9.04,26.5,25.07,26.5,7.03,0,11.65-3.1,14.7-7.77v1.13c0,3,2.41,5.46,5.36,5.46h14.85v-50.78h-20.2Zm-9.34,37.26c-5.55,0-9.29-4.77-9.29-11.9s3.74-11.9,9.29-11.9,9.29,4.57,9.29,11.9c.05,7.32-3.54,11.9-9.29,11.9Zm-39.91-117.34l-6,33.08-6.69-33.08h-24.14l-6.69,33.08-6-33.08h-20.1l-20.94-.15c-3.15,0-6.19,1.92-7.86,4.96l-11.9,17.3v-38.88h-12.98c-4.03,0-7.28,3.29-7.28,7.37v59.77h20.25v-25.17l13.86,20.2c1.67,3.05,4.72,4.96,7.86,4.96l20.99,.15-20.5-27.04,18.48-23.5,12.09,50.53h22.61c2.51,0,4.62-1.82,5.06-4.37l4.33-29.99h1.67l4.33,29.99c.44,2.51,2.56,4.37,5.06,4.37h22.61l12.09-50.58-20.25,.05h0Zm-217.76,102.15c0,8.65-2.75,13.08-8.26,13.08-3.39,0-6.88-1.13-6.88-9.49v-25.46h-20.25v28.85c0,14.55,7.28,22.51,20.45,22.51,6.64,0,12.34-2.36,16.52-6.69v.39c0,3,2.41,5.46,5.36,5.46h13.32v-50.53h-20.25v21.87h0Zm201.79-23.05c-7.03,0-13.12,3-17.35,8.55-3.49-5.51-9.24-8.55-16.57-8.55-6.14,0-11.65,2.36-15.73,6.64v-5.46h-18.48v50.58h20.06v-24.38c0-6.54,2.95-10.77,7.57-10.77,3.29,0,6.29,1.13,6.29,9.19v25.95h20.15v-24.38c0-6.64,2.85-10.77,7.47-10.77,3.29,0,6.29,1.13,6.29,9.19v25.95h20.06v-29.35c0-14.45-7.03-22.42-19.76-22.42Zm266.13-.1c-6.64,0-12.34,2.36-16.52,6.73v-5.46h-18.68v50.58h20.25v-24.38c0-6.69,3.24-11.06,8.26-11.06,3.39,0,6.88,1.13,6.88,9.49v25.95h20.15v-29.35c0-14.55-7.23-22.51-20.35-22.51h0Zm-151.89-15.34h-20.25v59.77c0,4.08,3.24,7.37,7.28,7.37h12.98v-35.69h12.24v-14.89h-12.24v-16.57h0Zm40.8-80.22h-13.96c-4.03,0-7.28,3.29-7.28,7.37v59.77h21.24V69.06h0Zm-440.78,80.22c-2.16,0-4.13,1.33-4.92,3.34l-25.51,63.85h21.19l4.72-12.68h24.38l2.61,7.32h0c1.43,3.2,4.57,5.31,7.96,5.31h16.61l-26.84-67.2-20.2,.05h0Zm.93,39.52l6.98-18.97,6.69,18.97h-13.67Zm133.85-39.47h-21.48v59.77c0,4.08,3.24,7.37,7.28,7.37h14.21v-35.69h12.24v-14.89h-12.24v-16.57h0Zm-95.9-38.98c-2.16-2.75-5.06-4.77-9.44-5.55v-.2c9.39-1.13,14.99-7.52,14.99-17.84,0-12.93-9.24-17.94-24.23-17.94h-36.28v67.29h21.43v-24.48h5.9c2.95,0,5.95,.49,6.78,3.49l6.05,17.6c.34,1.97,2.02,3.39,3.93,3.39h19.81l-7.42-22.46c-.25-1.23-.79-2.31-1.52-3.29h0Zm-24.73-12.78h-8.45v-14.26h8.8c4.37,0,8.55,.88,8.55,6.93-.05,6.73-4.42,7.32-8.9,7.32h0Z"/><path class="cls-5" d="M100.95,102.24l77.91-57.71c1.13-.84,.54-2.61-.84-2.61h-63.9c-7.37,0-14.5,2.95-19.71,8.16l-40.7,40.65c-5.21,5.26-8.16,12.34-8.16,19.76v57.51c0,7.42,2.95,14.5,8.16,19.76l40.65,40.65c5.26,5.21,12.39,8.16,19.76,8.16h55.3c1.52,0,2.02-2.06,.59-2.75l-109.86-51.81c-4.57-2.16-7.52-6.78-7.52-11.85v-27.58c0-2.9,1.38-5.6,3.69-7.32l15.83-11.75v-21.33h28.81v.05Z"/><path class="cls-1" d="M176.7,124.46l-7.52,20.45h14.7l-7.18-20.45Zm-63.21,.84c0-6.54-4.47-7.47-9.19-7.47h-9.49v15.44h9.14c4.82-.05,9.54-.69,9.54-7.96h0Z"/><path class="cls-2" d="M233.13,91.86l-37.85-37.85c-2.11-2.11-5.46-2.41-7.96-.69l-72.85,49.06c13.81,.88,22.17,6.44,22.17,19.22,0,11.11-6,18.04-16.17,19.27v.2c4.72,.88,7.86,3.05,10.18,6,.84,1.03,1.38,2.26,1.67,3.49l5.75,17.45,24.77-62.04c.88-2.16,3-3.59,5.31-3.59h21.78l28.95,72.46h-17.89c-3.64,0-7.03-2.31-8.55-5.75h0l-2.8-7.91h-26.3l-5.11,13.67h-39.28c-2.11,0-3.88-1.52-4.23-3.69l-6.54-18.97c-.88-3.24-4.13-3.79-7.32-3.79h-6.34v26.4h-22.37v-43.95l-13.37,9c-1.23,.84-1.92,2.21-1.92,3.69v27.97c0,1.82,1.08,3.44,2.7,4.13l126.09,52.79c2.36,1.03,5.06,.49,6.88-1.28l40.6-40.46c4.57-4.52,7.13-10.72,7.13-17.16v-60.56c0-6.44-2.56-12.58-7.13-17.11h0Z"/></g><g><path class="cls-3" d="M1066.11,68.86h132.96c23.73,0,34.54,7.68,34.54,28.61v32.8c0,20.6-10.82,28.63-34.54,28.63h-97.36v57.58h-35.6V68.86Zm35.6,25.48v39.07h82.01c10.82,0,16.4-2.1,16.4-11.86v-15.35c0-9.78-5.58-11.87-16.4-11.87h-82.01Z"/><polygon class="cls-3" points="1238.69 68.86 1275 68.86 1275 188.91 1390.85 188.91 1390.85 216.48 1238.69 216.48 1238.69 68.86"/><polygon class="cls-3" points="1627.08 140.75 1552.74 68.86 1600.9 68.86 1650.45 116.68 1697.22 68.86 1738.76 68.86 1671.4 136.57 1754.45 216.48 1705.25 216.48 1648.71 161.35 1596.71 216.48 1554.14 216.48 1627.08 140.75"/><g><rect class="cls-3" x="1395.93" y="188.91" width="152.16" height="27.53"/><rect class="cls-3" x="1395.93" y="68.86" width="152.16" height="27.53"/><rect class="cls-3" x="1395.93" y="128.88" width="152.16" height="27.53"/></g></g></g><rect class="cls-4" x="972.73" y="41.04" width="4.63" height="203.74"/></svg>